<?xml version="1.0" encoding="UTF-8"?>
<svg version="1.1" xmlns="http://www.w3.org/2000/svg" width="1585" height="1390">
<path d="M0 0 C1.42771729 0.00628418 1.42771729 0.00628418 2.88427734 0.01269531 C10.65064999 0.13640977 17.64395794 1.12894711 25.125 3.3125 C26.09953125 3.56773438 27.0740625 3.82296875 28.078125 4.0859375 C40.56434087 7.72496833 53.90932726 15.0746742 63.125 24.3125 C63.125 24.9725 63.125 25.6325 63.125 26.3125 C64.115 26.6425 65.105 26.9725 66.125 27.3125 C66.125 27.9725 66.125 28.6325 66.125 29.3125 C67.115 29.6425 68.105 29.9725 69.125 30.3125 C85.12155716 48.7989264 93.34120722 73.02036103 92.125 97.3125 C89.95849879 123.03196433 78.6604905 146.14662842 59.03515625 163.01171875 C50.69362482 169.60656709 42.55271028 174.40445593 32.57421875 178.10546875 C31.66279617 178.44769974 30.7513736 178.78993073 29.81233215 179.14253235 C19.39758103 183.01471258 8.86383753 186.52174094 -1.6875 190 C-3.79290385 190.69802845 -5.89820803 191.39635763 -8.00341797 192.0949707 C-21.96833825 196.72261591 -35.95844112 201.27105417 -49.95755005 205.79400635 C-62.05415837 209.70505878 -74.10309854 213.74017427 -86.125 217.875 C-86.91498383 218.14666992 -87.70496765 218.41833984 -88.51889038 218.69824219 C-89.70099594 219.10478027 -89.70099594 219.10478027 -90.90698242 219.51953125 C-111.4200949 226.57350418 -131.99980085 233.42131883 -152.62109375 240.15234375 C-153.66659393 240.49360794 -154.71209412 240.83487213 -155.78927612 241.18647766 C-157.98138357 241.90193901 -160.17349174 242.61739815 -162.36560059 243.33285522 C-164.0408783 243.87965439 -164.0408783 243.87965439 -165.75 244.4375 C-167.43470398 244.9873204 -167.43470398 244.9873204 -169.15344238 245.54824829 C-201.00172405 255.94811609 -232.77113442 266.58539922 -264.54907227 277.19775391 C-265.31343314 277.4530122 -266.07779402 277.70827049 -266.86531734 277.97126389 C-270.82015806 279.29205043 -274.77488956 280.61316285 -278.72946167 281.93475342 C-311.61464013 292.92404567 -311.61464013 292.92404567 -326.05691528 297.54492188 C-339.90346184 301.98127794 -353.68458291 306.59444582 -367.4375 311.3125 C-383.61085016 316.85959624 -399.79912005 322.35320411 -416.03479004 327.71543884 C-420.8678956 329.31278786 -425.69726037 330.92088449 -430.52392578 332.53759766 C-436.63900521 334.58584328 -442.75815275 336.62155855 -448.87957764 338.65075684 C-451.30335644 339.45644708 -453.72580391 340.26615537 -456.14678955 341.0802002 C-485.67449258 351.00068641 -513.64995608 356.16291764 -542.875 342.3125 C-553.25552411 337.13130051 -561.74107015 330.53065694 -569.875 322.3125 C-570.60203125 321.60738281 -571.3290625 320.90226562 -572.078125 320.17578125 C-588.55315231 303.14942428 -595.33485534 278.32904632 -595.0859375 255.1796875 C-593.86212641 232.7431509 -585.26936948 212.25237365 -570.25 195.5 C-568.875 194.3125 -568.875 194.3125 -566.875 194.3125 C-566.875 193.6525 -566.875 192.9925 -566.875 192.3125 C-558.27427642 184.04182676 -547.68623521 177.4730123 -536.4921875 173.421875 C-535.80090759 173.16741608 -535.10962769 172.91295715 -534.3973999 172.65078735 C-527.42462648 170.106019 -520.39282055 167.74106847 -513.34347534 165.41845703 C-511.03603386 164.65818689 -508.72992954 163.89396697 -506.42407227 163.12890625 C-503.18375227 162.05419571 -499.9429449 160.98097705 -496.70166016 159.90917969 C-489.06925089 157.38503962 -481.44016772 154.85092855 -473.8125 152.3125 C-472.69556259 151.94106873 -472.69556259 151.94106873 -471.55606079 151.56213379 C-462.12907839 148.42561469 -452.72060573 145.24031349 -443.32995605 141.99667358 C-441.82415665 141.47689321 -440.3183379 140.95716884 -438.8125 140.4375 C-437.79684212 140.08687752 -437.79684212 140.08687752 -436.76066589 139.72917175 C-425.82108986 135.95803935 -414.84248992 132.32201494 -403.83255196 128.76200485 C-380.47867799 121.20631547 -357.19014555 113.45816718 -333.9095459 105.68023682 C-328.93941628 104.02009063 -323.96870856 102.3616773 -318.99804688 100.703125 C-311.26537595 98.12273524 -303.53285101 95.54190866 -295.80053711 92.96044922 C-294.88157622 92.65365675 -293.96261534 92.34686428 -293.01580715 92.03077507 C-288.56352475 90.5443047 -284.1113659 89.05746597 -279.65945435 87.56988525 C-247.03836476 76.66992027 -247.03836476 76.66992027 -232.69308472 72.08007812 C-218.84654005 67.64372267 -205.06539011 63.0306295 -191.3125 58.3125 C-190.44952301 58.01649902 -189.58654602 57.72049805 -188.69741821 57.41552734 C-187.83538788 57.11984863 -186.97335754 56.82416992 -186.08520508 56.51953125 C-165.42621028 49.43414608 -144.71503117 42.51220972 -123.94921875 35.74609375 C-122.99267899 35.4343924 -122.03613922 35.12269104 -121.0506134 34.80154419 C-117.04681748 33.49728972 -113.04289047 32.19345107 -109.03799438 30.89257812 C-96.44107406 26.80034086 -83.86501817 22.65122088 -71.31453514 18.41893578 C-69.16159683 17.6932086 -67.00827333 16.96863651 -64.85481262 16.24446106 C-63.42379589 15.76315817 -61.99278088 15.2818502 -60.56176758 14.80053711 C-59.85533772 14.56296472 -59.14890787 14.32539232 -58.42107105 14.08062077 C-54.23175013 12.67075645 -50.04537261 11.25253603 -45.86093712 9.8282423 C-43.87146992 9.15265005 -41.8806377 8.48127124 -39.88916016 7.81163025 C-37.45322483 6.99235288 -35.01951053 6.16642636 -32.58862305 5.33229065 C-21.80777759 1.72682593 -11.36432735 -0.06965696 0 0 Z " fill="#FFFFFF" transform="translate(1043.875,-0.3125)"/>
<path d="M0 0 C19.75768551 17.64796655 30.8656821 40.58481823 32.4921875 67.1171875 C33.07647854 94.61538436 21.94808126 117.51517408 3.3046875 137.05859375 C-15.26541828 156.10485609 -43.73680211 162.17935728 -68.23486328 170.05200195 C-79.88332785 173.79745386 -91.46992371 177.69049086 -103.03077698 181.69720459 C-113.8925056 185.45807948 -124.79595927 189.07291598 -135.73311424 192.60792732 C-152.12594385 197.90939323 -168.49029598 203.29317625 -184.83203125 208.75 C-186.27985961 209.23335217 -186.27985961 209.23335217 -187.75693703 209.72646904 C-194.63295999 212.02249182 -201.50800181 214.32144416 -208.3828125 216.62109375 C-216.24021483 219.24940568 -224.09808038 221.8763216 -231.95703125 224.5 C-232.91293781 224.81919088 -233.86884438 225.13838177 -234.8537178 225.4672451 C-249.49096674 230.35222452 -264.15439995 235.15210335 -278.83500481 239.9050293 C-290.31260128 243.62156544 -301.76796976 247.38903124 -313.16949463 251.33410645 C-317.37566876 252.78861899 -321.58661025 254.22925546 -325.796875 255.671875 C-326.63890472 255.96061493 -327.48093445 256.24935486 -328.34848022 256.54684448 C-353.08534973 265.02219105 -377.95000436 273.11651853 -402.80465698 281.23797607 C-420.70432797 287.08716799 -438.58601226 292.98603999 -456.4420166 298.96711731 C-461.47566363 300.65263742 -466.5125927 302.32810908 -471.55078125 304 C-473.80646385 304.74915665 -476.06209253 305.49847533 -478.31768799 306.24789429 C-479.80988875 306.7435223 -481.30219699 307.23882684 -482.7946167 307.73379517 C-491.51159288 310.62630413 -500.20725059 313.57180739 -508.87890625 316.59765625 C-510.58801836 317.19158842 -512.29716525 317.78542053 -514.00634766 318.37915039 C-517.24043885 319.50289577 -520.46974589 320.63912391 -523.69677734 321.78295898 C-536.23669006 326.17777676 -548.71193087 329.66485077 -562.1328125 329.43359375 C-563.0211377 329.42344238 -563.90946289 329.41329102 -564.82470703 329.40283203 C-589.31001039 328.83545209 -611.58029266 318.9744041 -629.06640625 301.71875 C-646.78570072 282.80422487 -655.39456421 258.68294098 -654.94140625 232.90625 C-653.54998003 211.15141144 -645.06681656 191.43290628 -630.6953125 175.05859375 C-630.04175781 174.30964844 -629.38820313 173.56070313 -628.71484375 172.7890625 C-620.0941835 163.55379608 -609.58048718 156.9752885 -597.96484375 152.171875 C-597.1453978 151.83053528 -596.32595184 151.48919556 -595.48167419 151.13751221 C-587.1084075 147.71551414 -578.56852698 144.88619914 -569.94812012 142.159729 C-566.19228483 140.97149172 -562.44300638 139.7631046 -558.69302368 138.55654907 C-556.77437185 137.93950389 -554.8554071 137.32343082 -552.93612671 136.70834351 C-544.25292589 133.92494079 -535.59400285 131.07223319 -526.9453125 128.18359375 C-526.22817078 127.94445251 -525.51102905 127.70531128 -524.77215576 127.45892334 C-515.81623218 124.470795 -506.87432969 121.44289794 -497.94140625 118.38671875 C-494.08859862 117.06884378 -490.23577076 115.75102827 -486.3828125 114.43359375 C-485.4108493 114.10123718 -484.43888611 113.76888062 -483.43746948 113.42645264 C-464.68727488 107.02159833 -445.8705501 100.82819182 -427.02807617 94.70068359 C-410.77393032 89.41289104 -394.55362063 84.02807753 -378.34182072 78.61223984 C-369.05581188 75.51021341 -359.76749681 72.41511114 -350.47927284 69.31972504 C-345.37412629 67.61832725 -340.26910099 65.91656574 -335.1640625 64.21484375 C-333.08984432 63.52343578 -331.01562557 62.83202954 -328.94140625 62.140625 C-327.91128418 61.79725098 -326.88116211 61.45387695 -325.81982422 61.10009766 C-322.69628906 60.05891927 -319.57275391 59.01774089 -316.44921875 57.9765625 C-314.90681471 57.46242766 -314.90681471 57.46242766 -313.333251 56.93790627 C-311.26668542 56.24905128 -309.20011959 55.56019706 -307.1335535 54.87134361 C-302.05512976 53.17853937 -296.97671027 51.48572237 -291.89830017 49.7928772 C-282.82104946 46.76706593 -273.74375141 43.741397 -264.66625977 40.71630859 C-261.59390381 39.69240967 -258.5215571 38.66848301 -255.44921875 37.64453125 C-254.35007739 37.27821154 -254.35007739 37.27821154 -253.22873116 36.90449142 C-243.55860585 33.68149561 -233.89002711 30.45390665 -224.22265625 27.22265625 C-200.73075484 19.3729822 -177.22711955 11.56657122 -153.66503906 3.92993164 C-142.98911241 0.46804094 -132.33185917 -3.04546121 -121.68893433 -6.60751343 C-117.30438647 -8.07413532 -112.91783705 -9.53475995 -108.53126526 -10.99531555 C-105.43450559 -12.02675588 -102.33896175 -13.06140037 -99.24560547 -14.10302734 C-64.41879094 -25.81181202 -29.16850131 -24.53023143 0 0 Z " fill="#FFFFFF" transform="translate(1103.6953125,311.94140625)"/>
<path d="M0 0 C1.03640625 0.37382813 2.0728125 0.74765625 3.140625 1.1328125 C14.34078641 5.46928525 25.30190785 11.62904849 34 20 C34 20.66 34 21.32 34 22 C34.56332031 22.21785156 35.12664063 22.43570313 35.70703125 22.66015625 C48.39815181 30.07592176 55.91443533 50.71833839 59.5 64.1875 C65.53926173 88.65210193 61.52387252 113.90772479 48.9375 135.625 C34.44525277 159.32514904 11.24133771 171.4902309 -14.46875 179.65625 C-16.02847688 180.16250115 -17.58775056 180.67015033 -19.14660645 181.17907715 C-22.42425653 182.24811434 -25.70367119 183.31146716 -28.984375 184.37109375 C-36.48689901 186.80037817 -43.96300779 189.30888112 -51.44143677 191.81112671 C-55.69294392 193.23281345 -59.94617291 194.6493307 -64.19921875 196.06640625 C-65.91455892 196.63815917 -67.62989095 197.20993654 -69.34521484 197.78173828 C-72.78173828 198.92724609 -76.21826172 200.07275391 -79.65478516 201.21826172 C-80.50439536 201.50146523 -81.35400557 201.78466873 -82.22936153 202.07645416 C-83.9423619 202.64745407 -85.65536251 203.21845322 -87.36836338 203.7894516 C-91.60828806 205.20275614 -95.84820843 206.61607359 -100.08811951 208.02941895 C-107.50723412 210.50251627 -114.92637611 212.9755313 -122.34569073 215.44802856 C-126.27344895 216.75695989 -130.20118423 218.06596004 -134.12890625 219.375 C-134.88122591 219.62573273 -135.63354557 219.87646545 -136.4086628 220.13479614 C-145.29339633 223.09603431 -154.17704676 226.06046503 -163.05859375 229.03125 C-180.37086785 234.82007384 -197.69116025 240.57808974 -215.0625 246.1875 C-238.14447657 253.64287954 -261.16229055 261.28091957 -284.09194946 269.19287109 C-284.80410614 269.43859863 -285.51626282 269.68432617 -286.25 269.9375 C-286.96255951 270.18338867 -287.67511902 270.42927734 -288.40927124 270.68261719 C-301.68634408 275.25853327 -315.02417049 279.63514709 -328.39355469 283.93334961 C-343.10808325 288.67014453 -357.76669139 293.57345584 -372.42818737 298.47125244 C-381.13459835 301.3796371 -389.84304068 304.2819187 -398.55154228 307.18403625 C-403.14511505 308.71490942 -407.73856658 310.24614629 -412.33203125 311.77734375 C-414.1909174 312.39697437 -416.04980412 313.01660328 -417.90869141 313.63623047 C-418.8309552 313.94365173 -419.75321899 314.251073 -420.70343018 314.56781006 C-429.0913086 317.36376953 -429.0913086 317.36376953 -431.88232422 318.29408264 C-433.73716228 318.91237893 -435.59198004 319.53073612 -437.44677734 320.14915466 C-442.01563803 321.6724019 -446.58483353 323.1946282 -451.15478516 324.71459961 C-458.99227521 327.32243176 -466.82760842 329.93547821 -474.64858246 332.59250641 C-477.8880073 333.69264439 -481.12925881 334.78734424 -484.37062073 335.88175964 C-485.856002 336.38508426 -487.34046526 336.89112915 -488.82383728 337.40034485 C-496.51298236 340.0395228 -504.19536189 342.4156666 -512.10668945 344.30297852 C-512.79891098 344.46915176 -513.49113251 344.63532501 -514.20433044 344.80653381 C-520.39594307 346.22166255 -526.35938119 346.57945731 -532.6875 346.4375 C-533.75838867 346.42356201 -534.82927734 346.40962402 -535.93261719 346.39526367 C-556.78164942 345.90992451 -576.04535409 338.45304638 -592 325 C-592.80179688 324.35546875 -593.60359375 323.7109375 -594.4296875 323.046875 C-611.83200877 308.40940851 -622.20328607 286.534267 -624.59765625 264.08984375 C-626.67098452 238.80336957 -619.56314179 215.92723928 -604 196 C-603.48824219 195.33355469 -602.97648437 194.66710937 -602.44921875 193.98046875 C-601.35757619 192.60544995 -600.18792745 191.29274458 -599 190 C-598.34 190 -597.68 190 -597 190 C-597 189.34 -597 188.68 -597 188 C-596.34 188 -595.68 188 -595 188 C-594.67 187.01 -594.34 186.02 -594 185 C-591.74750171 183.14093807 -589.51885315 181.47066996 -587.125 179.8125 C-586.52558594 179.36841797 -585.92617188 178.92433594 -585.30859375 178.46679688 C-572.419791 169.49021421 -556.3754417 164.89280996 -541.54119873 160.21621704 C-536.82323949 158.72764544 -532.11529523 157.20789393 -527.40625 155.69140625 C-525.96443863 155.22806129 -525.96443863 155.22806129 -524.49349976 154.75535583 C-515.08088866 151.72220445 -505.72498755 148.53255337 -496.375 145.3125 C-461.21666794 133.22666043 -425.93504702 121.48752993 -390.55517578 110.06640625 C-375.91590494 105.33507335 -361.32624761 100.45568641 -346.73385525 95.58222675 C-337.60197718 92.53252557 -328.46817563 89.48860056 -319.33438683 86.44462776 C-314.40124192 84.8005289 -309.468205 83.15610611 -304.53515625 81.51171875 C-302.53271535 80.84423675 -300.53027395 80.17675629 -298.52783203 79.50927734 C-297.53366272 79.17788757 -296.53949341 78.8464978 -295.51519775 78.50506592 C-286.47216797 75.49072266 -286.47216797 75.49072266 -283.46460724 74.48820496 C-281.46832326 73.82277527 -279.47204131 73.1573395 -277.47576141 72.49189758 C-272.57165719 70.85716684 -267.66751918 69.22253761 -262.76330566 67.58813477 C-253.75093341 64.58451247 -244.73901903 61.57953688 -235.72851562 58.5703125 C-207.15631239 49.02985697 -207.15631239 49.02985697 -193.54067993 44.65606689 C-181.27555254 40.71289878 -169.03202214 36.70720097 -156.8125 32.625 C-156.12576202 32.3956073 -155.43902405 32.1662146 -154.73147583 31.92987061 C-150.8138387 30.62083776 -146.89661978 29.31055666 -142.97949219 28 C-131.86495115 24.28185559 -120.74863427 20.5690296 -109.63128567 16.85928917 C-105.94818393 15.63020762 -102.26529152 14.40050704 -98.58291626 13.16925049 C-27.68237065 -10.53582764 -27.68237065 -10.53582764 0 0 Z " fill="#FFFFFF" transform="translate(1073,585)"/>
<path d="M0 0 C26.07 0 52.14 0 79 0 C82.62936146 6.04893576 86.08745154 11.88894681 89.171875 18.18359375 C89.53566254 18.91673294 89.89945007 19.64987213 90.27426147 20.40522766 C91.04198217 21.95294463 91.80798314 23.50151574 92.57232666 25.05090332 C94.57280658 29.10494665 96.58701757 33.15215058 98.6015625 37.19921875 C98.99225922 37.98454987 99.38295593 38.76988098 99.78549194 39.57901001 C102.49215505 45.00919995 105.26089603 50.40093886 108.125 55.75 C112.95688437 64.78264375 117.49600816 73.95809012 122.05905151 83.12835693 C126.02170286 91.08860425 130.01574494 99.02148395 134.1875 106.875 C140.31155486 118.48684429 146.12907204 130.25814408 152 142 C152.495 71.71 152.495 71.71 153 0 C171.81 0 190.62 0 210 0 C210 74.58 210 149.16 210 226 C184.92 226 159.84 226 134 226 C124.125 206.6875 124.125 206.6875 121.07861328 200.7253418 C115.87230472 190.54660426 110.60281559 180.40410731 105.26416016 170.29418945 C102.18555629 164.46276885 99.1536745 158.60749645 96.125 152.75 C88.04332132 137.14399979 79.92971618 121.55487012 71.75 106 C71.38616211 105.30777344 71.02232422 104.61554688 70.64746094 103.90234375 C66.7942638 96.58571387 62.89157275 89.2966989 59 82 C58.67 129.52 58.34 177.04 58 226 C38.86 226 19.72 226 0 226 C0 151.42 0 76.84 0 0 Z " fill="#FFFFFF" transform="translate(1375,1158)"/>
<path d="M0 0 C1.26303955 0.00563965 2.5260791 0.0112793 3.82739258 0.01708984 C35.81853868 0.42914184 62.93031542 10.85256548 85.9375 33.39453125 C110.47080697 59.22158683 113.647759 97.06561136 112.94873047 130.76660156 C111.93223561 157.22461473 102.66699473 182.69367025 85.5625 202.9375 C84.78302002 203.86272461 84.78302002 203.86272461 83.98779297 204.80664062 C80.18542734 209.18819089 80.18542734 209.18819089 76.8125 210.3125 C76.8125 210.9725 76.8125 211.6325 76.8125 212.3125 C61.28717286 225.71037611 42.73082364 232.60323647 22.8125 236.3125 C21.41874146 236.58078613 21.41874146 236.58078613 19.99682617 236.85449219 C14.26864731 237.67838727 8.48913722 237.53781063 2.71240234 237.55273438 C0.47844507 237.56232423 -1.75454387 237.59333683 -3.98828125 237.625 C-17.1443761 237.72283141 -29.76467997 235.9438784 -42.25 231.625 C-43.36387085 231.24371948 -43.36387085 231.24371948 -44.50024414 230.85473633 C-56.88397749 226.441504 -67.47138283 220.21652379 -77.1875 211.3125 C-78.11304688 210.47976563 -79.03859375 209.64703125 -79.9921875 208.7890625 C-87.1596909 202.0186507 -92.27938146 194.81028171 -97.1875 186.3125 C-97.74179688 185.37019531 -98.29609375 184.42789062 -98.8671875 183.45703125 C-114.6221085 154.51858827 -116.78991124 114.00168463 -109.1875 82.3125 C-109.02121094 81.59787598 -108.85492187 80.88325195 -108.68359375 80.14697266 C-102.59353945 54.8563305 -88.1162336 31.24873672 -65.8671875 17.21875 C-45.45665046 4.9973636 -23.69246327 -0.1121423 0 0 Z M-27.1875 57.3125 C-28.20070313 58.23095703 -28.20070313 58.23095703 -29.234375 59.16796875 C-45.49332369 75.45842703 -48.4432356 100.80559122 -48.4362793 122.5690918 C-48.35567268 131.55354049 -47.73951184 139.65607585 -45.1875 148.3125 C-45.01057617 148.93898438 -44.83365234 149.56546875 -44.65136719 150.2109375 C-40.24235153 165.6234551 -32.49975822 179.58552036 -18.4140625 188.12890625 C-9.2245109 193.01387841 0.69327107 193.9035398 10.90625 191.62109375 C24.21475543 187.1537724 32.73579499 178.93895192 39 166.625 C51.43339246 141.20417911 52.76627547 110.52822774 43.609375 83.80078125 C42.45807277 80.89702215 41.19872337 78.11053856 39.8125 75.3125 C39.44511719 74.52875 39.07773438 73.745 38.69921875 72.9375 C32.89401629 61.44678997 22.9933813 51.67923103 10.8125 47.3125 C-3.21056074 44.06409115 -16.73631618 47.35994136 -27.1875 57.3125 Z " fill="#FFFFFF" transform="translate(1233.1875,1151.6875)"/>
<path d="M0 0 C20.25375 -0.0825 40.5075 -0.165 61.375 -0.25 C67.73700684 -0.28641602 74.09901367 -0.32283203 80.65380859 -0.36035156 C88.50708008 -0.37841797 88.50708008 -0.37841797 92.19985962 -0.3817749 C94.74326387 -0.38786086 97.2866576 -0.40181016 99.82998657 -0.42230225 C123.06967765 -0.5999596 143.74435289 0.63805326 163 15 C163.68964844 15.51175781 164.37929688 16.02351563 165.08984375 16.55078125 C175.55589791 24.96781905 180.69136214 37.01016037 183 50 C184.27606917 67.59743388 183.53794968 84.72695866 172 99 C165.66704022 106.12773362 157.73252516 110.40821587 149 114 C148.01 114 147.02 114 146 114 C146 114.66 146 115.32 146 116 C146.721875 116.2475 147.44375 116.495 148.1875 116.75 C159.47330882 121.76591503 163.80802137 133.205525 168 144 C170.6050226 151.01321452 173.05982993 158.0804053 175.51959229 165.14556885 C177.49408452 170.816649 179.48352321 176.48247927 181.47265625 182.1484375 C181.86229553 183.25927704 182.25193481 184.37011658 182.65338135 185.51461792 C186.33496591 195.99230844 190.13575088 206.42348083 194.00268555 216.83398438 C194.40656494 217.92259766 194.81044434 219.01121094 195.2265625 220.1328125 C195.57283691 221.05980957 195.91911133 221.98680664 196.27587891 222.94189453 C197 225 197 225 197 226 C174.89 226 152.78 226 130 226 C120.875 199.5 120.875 199.5 118.03466797 191.24023438 C112.92604211 176.38442024 112.92604211 176.38442024 107.6328125 161.59375 C107.2114502 160.43552734 106.79008789 159.27730469 106.35595703 158.08398438 C104.1332508 153.02866836 101.49019852 148.94113994 97 145.6875 C96.34 145.19636719 95.68 144.70523437 95 144.19921875 C85.86890527 138.72412875 67.05832397 141.21636871 61 141 C61 169.05 61 197.1 61 226 C40.87 226 20.74 226 0 226 C0 151.42 0 76.84 0 0 Z M60 45 C60 61.17 60 77.34 60 94 C66.55875 94.0825 73.1175 94.165 79.875 94.25 C81.92444824 94.28641602 83.97389648 94.32283203 86.08544922 94.36035156 C97.12992244 94.47583806 106.13789972 94.29738404 114.9375 86.875 C119.22964492 82.11609701 120.86897542 76.76553259 121.08984375 70.41796875 C120.54782883 61.37048896 117.13218235 55.53243848 110.48828125 49.54296875 C103.9208912 45.47056832 97.18071029 44.5606763 89.58984375 44.70703125 C88.45343445 44.71156311 88.45343445 44.71156311 87.29406738 44.71618652 C84.50840305 44.73168804 81.72293542 44.77356936 78.9375 44.8125 C72.688125 44.874375 66.43875 44.93625 60 45 Z " fill="#FFFFFF" transform="translate(217,1158)"/>
<path d="M0 0 C57.09 0 114.18 0 173 0 C173 15.51 173 31.02 173 47 C136.37 47 99.74 47 62 47 C62 60.53 62 74.06 62 88 C97.31 88 132.62 88 169 88 C169 104.17 169 120.34 169 137 C133.69 137 98.38 137 62 137 C62 150.53 62 164.06 62 178 C99.29 178 136.58 178 175 178 C175 193.84 175 209.68 175 226 C117.25 226 59.5 226 0 226 C0 151.42 0 76.84 0 0 Z " fill="#FFFFFF" transform="translate(0,1158)"/>
<path d="M0 0 C0.84756866 0.00237671 1.69513733 0.00475342 2.56838989 0.00720215 C16.67077153 0.06882873 30.16904469 1.23118452 43.9375 4.4375 C45.18466797 4.71762939 45.18466797 4.71762939 46.45703125 5.00341797 C59.44818252 7.94818252 59.44818252 7.94818252 60.9375 9.4375 C61.64967362 17.57880597 60.47715714 25.90722427 59.71069336 34.01635742 C59.49883211 36.26238125 59.29481125 38.50902032 59.09179688 40.75585938 C57.99096089 52.69153089 57.99096089 52.69153089 56.9375 57.4375 C55.72835938 56.96699219 54.51921875 56.49648437 53.2734375 56.01171875 C31.16720385 47.54993746 5.17809727 41.50313049 -18.0625 49.4375 C-23.87704148 52.09644932 -28.23255129 54.5235205 -31.0625 60.4375 C-32.03202817 65.84261956 -31.77992628 70.97437956 -29.0625 75.8125 C-23.61729908 82.99906457 -15.57196223 85.57874306 -7.25 88.1875 C-6.2175415 88.52330078 -5.18508301 88.85910156 -4.12133789 89.20507812 C0.39507371 90.6734781 4.91969887 92.11522463 9.44726562 93.54882812 C32.01919411 100.7155089 52.75079571 107.31003886 65.28125 129.05859375 C73.78222644 146.40138766 74.62725197 168.30915432 69.265625 186.75390625 C62.82850639 204.60744404 52.55013842 217.34365488 35.53125 226.25390625 C-3.63202294 244.12509857 -47.52344007 240.04531665 -88.265625 229.96484375 C-89.16442383 229.7443335 -90.06322266 229.52382324 -90.98925781 229.29663086 C-92.0155127 228.87136108 -92.0155127 228.87136108 -93.0625 228.4375 C-94.09128202 225.35115393 -94.06880181 223.88007907 -93.7487793 220.70654297 C-93.65505539 219.74900116 -93.56133148 218.79145935 -93.46476746 217.80490112 C-93.35651138 216.77358063 -93.24825531 215.74226013 -93.13671875 214.6796875 C-92.97524101 213.09149704 -92.97524101 213.09149704 -92.8105011 211.47122192 C-92.58082831 209.23324006 -92.3477624 206.99560421 -92.11157227 204.75830078 C-91.75083167 201.32042584 -91.40704834 197.88113106 -91.06445312 194.44140625 C-90.83956974 192.27072658 -90.61369227 190.10014962 -90.38671875 187.9296875 C-90.28453537 186.89431854 -90.18235199 185.85894958 -90.07707214 184.79220581 C-89.97389175 183.84096832 -89.87071136 182.88973083 -89.7644043 181.90966797 C-89.67700485 181.06822235 -89.58960541 180.22677673 -89.4995575 179.35983276 C-89.35532852 178.72546295 -89.21109955 178.09109314 -89.0625 177.4375 C-87.0625 176.4375 -87.0625 176.4375 -85.17749023 176.99487305 C-84.41637939 177.30980713 -83.65526855 177.62474121 -82.87109375 177.94921875 C-82.01773438 178.2932373 -81.164375 178.63725586 -80.28515625 178.99169922 C-79.36605469 179.36568848 -78.44695313 179.73967773 -77.5 180.125 C-54.93124734 188.96008405 -28.66605834 194.60961386 -5.0234375 186.73828125 C0.34420952 184.38019885 4.25481244 181.03164332 7.4375 176.125 C8.46429773 170.60596221 8.62871312 165.47273864 6.8125 160.125 C-1.96624088 147.54213808 -20.03450561 144.25435293 -33.81225586 139.82324219 C-50.16273368 134.54301108 -66.33373004 128.39628765 -79.0625 116.4375 C-79.69285156 115.84839844 -80.32320312 115.25929688 -80.97265625 114.65234375 C-93.49780238 101.68675292 -96.56027026 84.40019201 -96.41430664 67.05664062 C-95.97711463 50.41611433 -89.7027947 36.39334486 -78.0625 24.4375 C-56.97664942 5.10880363 -27.75368695 -0.20609596 0 0 Z " fill="#FFFFFF" transform="translate(1032.0625,1151.5625)"/>
<path d="M0 0 C0.86072113 0.00021149 1.72144226 0.00042297 2.60824585 0.00064087 C23.48228898 0.0517333 42.25081124 3.69012538 62.25 9.375 C61.72903412 15.72980727 61.19465396 22.08338339 60.65087891 28.4362793 C60.46743754 30.59812763 60.28708243 32.76024013 60.10986328 34.92260742 C59.85477333 38.02857697 59.58864278 41.13343109 59.3203125 44.23828125 C59.20455368 45.69153557 59.20455368 45.69153557 59.0864563 47.17414856 C59.00652435 48.0748558 58.92659241 48.97556305 58.84423828 49.90356445 C58.74431076 51.09270195 58.74431076 51.09270195 58.6423645 52.30586243 C58.25 54.375 58.25 54.375 56.25 57.375 C55.62996094 57.06046875 55.00992188 56.7459375 54.37109375 56.421875 C32.7037429 45.95089904 6.89830272 42.9350712 -16.40234375 49.109375 C-22.81750159 51.53470889 -27.64643198 55.16786395 -30.75 61.375 C-31.35656786 67.20738322 -30.75728191 71.23756008 -27.75 76.375 C-27.75 77.035 -27.75 77.695 -27.75 78.375 C-27.21834229 78.63676025 -26.68668457 78.89852051 -26.13891602 79.16821289 C-24.37111649 80.0612362 -22.61848391 80.98442571 -20.87475586 81.92358398 C-11.93067325 86.62622358 -3.02017009 89.71098039 6.6875 92.4375 C28.19399683 98.54829428 51.50983804 105.71518281 63.94140625 125.9296875 C73.97341217 144.67606275 75.57164289 167.55983723 69.51171875 187.9296875 C62.82493219 206.18896225 50.97707228 219.27298826 33.50585938 227.67675781 C13.2849681 236.87754761 -9.68442363 239.56747395 -31.75 238.375 C-32.58611816 238.33246094 -33.42223633 238.28992187 -34.28369141 238.24609375 C-52.11974718 237.24142695 -69.62034888 234.19083687 -86.953125 229.90234375 C-87.85192383 229.6818335 -88.75072266 229.46132324 -89.67675781 229.23413086 C-90.7030127 228.80886108 -90.7030127 228.80886108 -91.75 228.375 C-92.74930595 225.37708214 -92.78622411 223.93604224 -92.52807617 220.859375 C-92.45437302 219.94833008 -92.38066986 219.03728516 -92.30473328 218.09863281 C-92.21835098 217.11733398 -92.13196869 216.13603516 -92.04296875 215.125 C-91.95751297 214.1153418 -91.87205719 213.10568359 -91.78401184 212.06542969 C-91.60128263 209.93006503 -91.41529878 207.79497676 -91.22631836 205.66015625 C-90.93871839 202.38885855 -90.66699819 199.11649952 -90.39648438 195.84375 C-90.21710938 193.77074973 -90.03680208 191.69782988 -89.85546875 189.625 C-89.77515915 188.64370117 -89.69484955 187.66240234 -89.61210632 186.65136719 C-89.52894669 185.74032227 -89.44578705 184.82927734 -89.36010742 183.890625 C-89.29047287 183.08915039 -89.22083832 182.28767578 -89.14909363 181.46191406 C-88.75 179.375 -88.75 179.375 -86.75 176.375 C-85.55246094 176.83390625 -84.35492187 177.2928125 -83.12109375 177.765625 C-73.10303295 181.55962428 -63.19894356 184.94672438 -52.75 187.375 C-51.85796875 187.58898438 -50.9659375 187.80296875 -50.046875 188.0234375 C-33.19804196 191.58960155 -14.01215121 192.352736 1.25 183.375 C2.24 183.045 3.23 182.715 4.25 182.375 C7.07216901 177.75318699 9.51058855 171.57414025 9.06640625 166.12109375 C8.52584129 163.76163179 8.52584129 163.76163179 7.25 160.375 C6.96125 159.42625 6.6725 158.4775 6.375 157.5 C4.97370751 154.85311418 3.93440976 154.61560022 1.25 153.375 C0.10857544 152.74718628 0.10857544 152.74718628 -1.0559082 152.10668945 C-11.40400484 146.58651157 -22.47638055 143.27516041 -33.60961914 139.70581055 C-48.87719095 134.78770874 -64.48192631 129.07693662 -76.75 118.375 C-76.75 117.715 -76.75 117.055 -76.75 116.375 C-77.41 116.375 -78.07 116.375 -78.75 116.375 C-91.2079642 103.94509428 -95.90523081 87.13631843 -96.1875 69.9375 C-96.09385369 57.09917628 -92.84649468 45.15753804 -85.75 34.375 C-85.26015625 33.60929687 -84.7703125 32.84359375 -84.265625 32.0546875 C-70.89559997 13.05866184 -47.04252441 5.45747592 -25.2734375 1.23046875 C-16.89250774 -0.08362133 -8.46312084 -0.01916178 0 0 Z " fill="#FFFFFF" transform="translate(845.75,1151.625)"/>
<path d="M0 0 C-1.14082067 16.68679496 -2.40299233 33.35034555 -4 50 C-4.57741943 49.74831055 -5.15483887 49.49662109 -5.74975586 49.23730469 C-33.06724323 37.4304794 -62.32568187 30.01401488 -91.25 41.25 C-107.80417442 48.70382854 -119.00247987 59.63701136 -125.8125 76.5625 C-127.76483782 82.00344148 -129.25051526 87.26814514 -130 93 C-130.20109375 94.53333984 -130.20109375 94.53333984 -130.40625 96.09765625 C-132.35331645 115.369189 -129.05089216 136.13336625 -116.89453125 151.6953125 C-102.99387871 167.7253249 -84.68957144 174.77240711 -63.86157227 176.5480957 C-42.30338513 178.08149096 -22.49874908 172.86771419 -3 164 C-2.06966648 166.79100056 -1.78657004 168.83986143 -1.61108398 171.74682617 C-1.55109726 172.70759567 -1.49111053 173.66836517 -1.42930603 174.6582489 C-1.36884598 175.69270645 -1.30838593 176.727164 -1.24609375 177.79296875 C-1.18092056 178.85413406 -1.11574738 179.91529938 -1.04859924 181.00862122 C-0.84110459 184.40136241 -0.6392382 187.79441213 -0.4375 191.1875 C-0.29789631 193.48635064 -0.15792693 195.7851791 -0.01757812 198.08398438 C0.32585991 203.7224057 0.66467633 209.36109061 1 215 C-13.59158002 218.83571959 -27.99946966 222.23855574 -43 224 C-43.78656982 224.09498779 -44.57313965 224.18997559 -45.38354492 224.2878418 C-85.29804413 228.73684721 -126.85382018 220.16755456 -158.625 194.9375 C-161.2265625 192.77734375 -161.2265625 192.77734375 -163 191 C-163 190.34 -163 189.68 -163 189 C-163.56332031 188.78601562 -164.12664063 188.57203125 -164.70703125 188.3515625 C-178.29801684 180.34052159 -187.12523847 157.37017857 -191 143 C-194.06508085 130.45634982 -195.23986253 118.49872673 -195.25 105.625 C-195.25067474 104.85989105 -195.25134949 104.0947821 -195.25204468 103.30648804 C-195.23653261 92.26029884 -194.93802641 81.71725422 -192 71 C-191.67128906 69.76636719 -191.34257813 68.53273438 -191.00390625 67.26171875 C-182.88453948 40.20652776 -164.62834789 17.30419452 -139.75 3.8125 C-96.27311092 -18.79459707 -45.13835064 -15.64962641 0 0 Z " fill="#FFFFFF" transform="translate(727,1164)"/>
<path d="M0 0 C20.46 0 40.92 0 62 0 C62 74.58 62 149.16 62 226 C41.54 226 21.08 226 0 226 C0 151.42 0 76.84 0 0 Z " fill="#FFFFFF" transform="translate(441,1158)"/>
</svg>
